<svg width="104" height="197" viewBox="0 0 104 197" fill="none" xmlns="http://www.w3.org/2000/svg">
<path d="M29.79 180.05L25.84 189.54L19.4 186.12L23.33 176.81L29.79 180.05Z" fill="#FCC9A7"/>
<path d="M28.01 188.98C28.01 188.41 27.52 188.04 27.03 188.25C26.07 188.66 24.49 189.01 22.6 188.16C20.64 187.28 20.28 185.83 20.27 184.88C20.27 184.38 19.91 184 19.46 184.07L5.09001 186.14C4.22001 186.27 3.40002 186.77 2.82002 187.55C2.27002 188.28 2.53002 189.34 3.30002 189.58L24.75 196.1C25.59 196.36 26.51 195.75 26.76 194.77L27.97 189.97C27.99 189.89 28 189.81 28 189.73L28.01 188.98Z" fill="#1F252A"/>
<path d="M88.02 157.03L97.02 161.99L92.93 168.02L84.1 163.1L88.02 157.03Z" fill="#FCC9A7"/>
<path d="M96.7 159.77C96.13 159.71 95.71 160.16 95.86 160.66C96.16 161.65 96.34 163.27 95.29 165.05C94.2 166.9 92.72 167.11 91.77 167C91.27 166.95 90.86 167.26 90.87 167.71L91.36 182.22C91.39 183.1 91.8 183.97 92.51 184.63C93.17 185.25 94.26 185.12 94.58 184.37L103.39 163.76C103.74 162.95 103.23 161.97 102.29 161.62L97.65 159.89C97.57 159.86 97.49 159.84 97.41 159.83L96.7 159.77Z" fill="#1F252A"/>
<path d="M34.55 88.37L38.02 110.63L55.56 142.16L85.76 168.42L92.8 155.97L68.85 133.63L54.8 88.75L34.55 88.37Z" fill="#092330"/>
<path d="M63.05 87.1C63.05 87.1 66.54 93.7 61.12 104.24L44.29 136.36L31.46 185.04L18.72 180.59L27.87 131.36L44.09 92.94L34.55 88.37L63.05 87.1Z" fill="#0C2C40"/>
<path d="M26.36 24.47C28.58 26.9 32.35 27.07 34.77 24.86C37.2 22.64 37.37 18.87 35.16 16.44C32.94 14.01 29.18 13.84 26.74 16.05C24.31 18.28 24.14 22.04 26.36 24.47Z" fill="#FCC9A7"/>
<path d="M21.6 27.53L26.78 21.29L30.91 25.44L26.05 31.39L21.6 27.53Z" fill="#FCC9A7"/>
<path d="M33.29 12.92L28.54 19.28C27.92 20.11 27.94 21.26 28.59 22.06L32.44 26.81C33.34 27.92 35.02 27.93 35.93 26.84L41.3 20.45C42.04 19.57 42 18.27 41.21 17.43L36.74 12.71C35.78 11.7 34.13 11.79 33.29 12.92Z" fill="#1C2226"/>
<path d="M38.2 35.34L19.37 44.79L29.71 28.84L22.89 22.94L1.33001 52.48C-0.629985 55.02 0.130016 58.72 2.94002 60.27C4.37002 61.06 6.09001 61.14 7.59001 60.48L35.51 49.39L38.2 35.34Z" fill="#F7ECE7"/>
<path d="M31.46 44.41C31.46 44.41 34.79 70.52 34.55 88.37C34.55 88.37 44.54 92.77 65.72 86.34L60.48 37.79L50.28 34.36L38.2 35.34L31.46 44.41Z" fill="#F7ECE7"/>
<path d="M41.62 32.8L41.88 34.5C41.9 34.62 41.86 34.75 41.77 34.84L39.16 37.61C38.92 37.86 38.5 37.72 38.46 37.38L38.19 35.34C38.17 35.21 38.22 35.08 38.32 34.99L40.93 32.56C41.18 32.34 41.58 32.47 41.62 32.8Z" fill="#FCF3F0"/>
<path d="M45.11 37.19C48.21 36.94 50.52 34.21 50.27 31.11L49.52 22.03L38.28 22.95L40.6 35.5C40.97 37.1 42 37.44 45.11 37.19Z" fill="#FCC9A7"/>
<path d="M49.9 25.21C49.9 25.21 47.48 32.09 42.57 31.24C38.06 30.46 38.28 22.95 38.28 22.95L49.9 25.21Z" fill="#F4BE9A"/>
<path d="M43.35 28.74L44.35 28.63C49.33 28.09 52.94 23.61 52.4 18.63L51.79 12.95C51.25 7.97001 46.77 4.35999 41.79 4.89999L40.79 5.00999C35.81 5.54999 32.2 10.03 32.74 15.01L33.35 20.69C33.89 25.68 38.37 29.28 43.35 28.74Z" fill="#FCC9A7"/>
<path d="M43.35 28.74L44.35 28.63C49.33 28.09 52.94 23.61 52.4 18.63L51.79 12.95C51.25 7.97001 46.77 4.35999 41.79 4.89999L40.79 5.00999C35.81 5.54999 32.2 10.03 32.74 15.01L33.35 20.69C33.89 25.68 38.37 29.28 43.35 28.74Z" fill="#FCC9A7"/>
<path d="M52.2 16.83C51.52 16.76 48.67 18.92 47.93 17.98C46.91 16.68 45.98 14.31 47.3 11.85C47.52 11.44 47.58 10.96 47.44 10.51C47.18 9.70001 46.48 8.76001 44.55 9.44001C41.46 10.53 34.51 14.03 32.5 9.01999C29.96 2.70999 49.94 4.47001 49.94 4.47001L54.49 11.05L52.54 20.43L52.2 16.83Z" fill="#1C2226"/>
<path d="M49.42 17.78C49.61 19.56 51.21 20.85 52.99 20.65C54.77 20.46 56.06 18.86 55.86 17.08C55.67 15.3 54.07 14.01 52.29 14.21C50.51 14.41 49.23 16 49.42 17.78Z" fill="#FCC9A7"/>
<path d="M44.09 39.12L46.64 78.43L41.89 82.89L39.07 78.57L41.89 38.34L44.09 39.12Z" fill="#0C2C40"/>
<path d="M40.29 36.41L40.68 35.87L40.58 35.4H46.2L46.64 36.87L42.9 40.17L40.29 36.41Z" fill="#0C2C40"/>
<path d="M49.91 30.58L44.59 34.2C43.99 34.61 43.91 35.47 44.43 35.98L48.61 40.09C49.08 40.55 49.85 40.53 50.29 40.03L54.5 35.3C54.91 34.84 54.89 34.13 54.45 33.7L51.37 30.69C50.98 30.32 50.37 30.27 49.91 30.58Z" fill="#FCF3F0"/>
<path d="M27.37 32.45L19.41 27.65" stroke="#EADDD8" stroke-width="0.7599" stroke-miterlimit="10" stroke-linecap="round" stroke-linejoin="round"/>
<path d="M41.87 70.15L39.08 99.98C38.97 101.1 39.74 102.12 40.85 102.34L75.06 108.88C76.32 109.12 77.51 108.24 77.65 106.97L80.78 78.62C80.9 77.52 80.18 76.5 79.1 76.24L44.55 68.23C43.26 67.92 42 68.83 41.87 70.15Z" fill="#AFAFAF"/>
<path d="M44.3 70.68L41.51 100.51C41.41 101.63 42.17 102.65 43.28 102.87L77.49 109.41C78.75 109.65 79.94 108.77 80.08 107.5L83.21 79.15C83.33 78.05 82.61 77.03 81.53 76.77L46.98 68.75C45.68 68.45 44.42 69.36 44.3 70.68Z" fill="#D1D1D1"/>
<path d="M57.21 98.13C54.46 95.61 50.18 95.8 47.66 98.55C45.14 101.3 45.33 105.58 48.08 108.1C50.83 110.62 55.11 110.43 57.63 107.68C60.15 104.92 59.96 100.65 57.21 98.13Z" fill="#FCC9A7"/>
<path d="M62.28 94.19L57.06 101.77L51.98 97.49L56.86 90.28L62.28 94.19Z" fill="#FCC9A7"/>
<path d="M60.49 37.79C60.49 37.79 68.14 38.56 70.36 51.07L79.16 69.35C79.4 70.15 79.56 70.97 79.64 71.79L61.13 98.38L52.78 93.43L67.75 69.43L58.66 55.04L60.49 37.79Z" fill="#F7ECE7"/>
<path d="M55.5 89.84L63.93 94.36" stroke="#EADDD8" stroke-width="0.7599" stroke-miterlimit="10" stroke-linecap="round" stroke-linejoin="round"/>
<path d="M63.11 62.09L57.72 52.71" stroke="#EADDD8" stroke-width="0.7599" stroke-miterlimit="10" stroke-linecap="round" stroke-linejoin="round"/>
<path d="M34.56 11.25C30.74 9.52 31.54 5.05999 32.41 3.64999C32.41 3.64999 32.58 6.16 34.29 5.58C34.29 5.58 34.06 1.84 39.07 0.869995C39.07 0.869995 37.22 4.23 43.81 3.59C51.9 2.8 52.37 7.92 51.92 14.28L49.44 12.5L47.52 8.07001H40.97L34.56 11.25Z" fill="#1C2226"/>
</svg>
