<svg width="88" height="190" viewBox="0 0 88 190" fill="none" xmlns="http://www.w3.org/2000/svg">
<path d="M28.67 84.48C31.26 82.92 34.63 83.75 36.19 86.35C37.75 88.94 36.92 92.31 34.32 93.87C31.73 95.43 28.36 94.6 26.8 92C25.24 89.42 26.08 86.05 28.67 84.48Z" fill="#FCC9A7"/>
<path d="M34.88 84.87C34.7 84.73 25.08 73.43 25.08 73.43L21.1501 78.19L29.83 89.18L34.88 84.87Z" fill="#FCC9A7"/>
<path d="M26.7701 172.97L24.32 184.16L16.58 183L19.08 171.96L26.7701 172.97Z" fill="#FCC9A7"/>
<path d="M61.47 171.97L61.56 183.43L53.7701 184.01L53.75 172.69L61.47 171.97Z" fill="#FCC9A7"/>
<path d="M25.3 182.34C25.14 181.87 24.57 181.67 24.16 181.97C23.36 182.55 21.95 183.23 19.91 182.99C17.79 182.74 17.0301 181.62 16.7701 180.82C16.6301 180.4 16.1801 180.18 15.7701 180.34L2.64006 185.6C1.84006 185.92 1.20004 186.54 0.870037 187.33C0.550037 188.07 1.09007 188.9 1.90007 188.9L24.2101 189.06C25.0901 189.07 25.79 188.34 25.75 187.46L25.56 183.15C25.56 183.08 25.5401 183.01 25.5201 182.94L25.3 182.34Z" fill="#0C0C0C"/>
<path d="M52.98 182.34C53.14 181.87 53.72 181.67 54.12 181.97C54.92 182.55 56.33 183.23 58.37 182.99C60.49 182.74 61.24 181.62 61.51 180.82C61.65 180.4 62.1 180.18 62.51 180.34L75.64 185.6C76.44 185.92 77.08 186.54 77.41 187.33C77.73 188.07 77.19 188.9 76.38 188.9L54.07 189.06C53.19 189.07 52.49 188.34 52.53 187.46L52.72 183.15C52.72 183.08 52.74 183.01 52.76 182.94L52.98 182.34Z" fill="#0C0C0C"/>
<path d="M52.88 28.3L45.95 28.9L34.93 35.11V79.27H64.3401V35.11L52.88 28.3Z" fill="#54585A"/>
<path d="M50.98 32.75H48.99C46.93 32.75 45.26 31.08 45.26 29.02V21.54H54.7V29.02C54.71 31.08 53.04 32.75 50.98 32.75Z" fill="#FCC9A7"/>
<path d="M45.26 25.35C45.26 25.35 46.73 28.3 50.07 28.3C53.41 28.3 54.7 25.29 54.7 25.29L45.26 25.35Z" fill="#F4BE9A"/>
<path d="M50.09 26.57H49.78C44.97 26.57 41.01 22.77 40.82 17.96L40.65 13.17C40.45 8.07999 44.52 3.84999 49.61 3.84999H50.26C54.11 3.84999 59.42 8.07999 59.22 13.17L59.05 17.96C58.86 22.77 54.9 26.57 50.09 26.57Z" fill="#FCC9A7"/>
<path d="M43.57 16.8C43.68 18.42 42.4601 19.82 40.8401 19.93C39.2201 20.04 37.82 18.82 37.71 17.2C37.6 15.58 38.82 14.18 40.44 14.07C42.06 13.97 43.46 15.19 43.57 16.8Z" fill="#FCC9A7"/>
<path d="M62.15 16.8C62.26 18.42 61.04 19.82 59.42 19.93C57.8 20.04 56.4 18.82 56.29 17.2C56.18 15.58 57.4 14.18 59.02 14.07C60.64 13.97 62.04 15.19 62.15 16.8Z" fill="#FCC9A7"/>
<path d="M34.93 79.06L16.64 176.29L27.1501 176.19L53.89 79.25L34.93 79.06Z" fill="#0C0C0C"/>
<path d="M64.3401 79.27L63.19 176.39H52.08L47.6501 79.88L64.3401 79.27Z" fill="#0C0C0C"/>
<path d="M34.93 35.11C34.93 35.11 10.3701 49.93 4.40006 60.21C3.23006 62.22 4.75004 64.82 6.81004 65.89C9.09004 67.08 11.9001 66.27 13.2101 64.06L35.93 50.88C35.94 50.88 34.93 39.56 34.93 35.11Z" fill="#54585A"/>
<path d="M40.14 7.72999L40.83 15.09H41.94L42.08 11.23C42.08 11.23 42.66 9.74999 45.25 6.56999C45.25 6.56999 46.94 10.89 57.41 10.05L58.02 14.93L59.1 14.81L59.67 9.56999C60.05 7.79999 60.18 6.14999 59.86 4.36999C59.21 0.769993 56.28 -1.22001 47.82 1.31999C47.12 1.52999 48.55 1.38999 47.82 1.31999C45.4 1.04999 39.02 1.01999 40.14 7.72999Z" fill="#2E2A33"/>
<path d="M52.6 78.57L50.22 104.03C50.13 104.99 50.78 105.86 51.73 106.04L80.93 111.62C82 111.83 83.0201 111.07 83.1401 109.99L85.81 85.79C85.91 84.85 85.3 83.98 84.37 83.76L54.88 76.92C53.78 76.66 52.71 77.44 52.6 78.57Z" fill="#AFAFAF"/>
<path d="M54.22 79.02L51.8401 104.48C51.7501 105.44 52.4 106.31 53.35 106.49L82.55 112.07C83.62 112.27 84.6401 111.52 84.7601 110.44L87.43 86.24C87.53 85.3 86.92 84.43 85.99 84.21L56.5 77.37C55.41 77.11 54.33 77.89 54.22 79.02Z" fill="#D1D1D1"/>
<path d="M69.42 105.01C72.32 105.87 73.98 108.92 73.12 111.82C72.26 114.72 69.21 116.38 66.31 115.53C63.41 114.67 61.75 111.62 62.6 108.72C63.47 105.81 66.51 104.15 69.42 105.01Z" fill="#FCC9A7"/>
<path d="M73.33 109.85C73.31 109.62 72.37 94.36 72.37 94.36L67.18 95.3L67.87 108.31L73.33 109.85Z" fill="#FCC9A7"/>
<path d="M64.3401 35.11C64.3401 35.11 72.2 40.74 72.7 48.76L75.16 67.51C75.3 68.61 75.36 69.71 75.32 70.82L74.37 99.34H63.58L63.38 68.47L64.3401 35.11Z" fill="#54585A"/>
<path d="M46.7801 28.3C45.9401 28.91 41.89 31.19 41.89 31.19C41.89 31.19 42 36.89 50.58 36.43C58.13 36.03 58.08 31.4 58.08 31.4L52.87 28.3H46.7801Z" fill="#FCC9A7"/>
<path d="M16.5 56.51L31.18 79.97L24.22 86.56L4.44003 63.47L16.5 56.51Z" fill="#54585A"/>
<path d="M63.37 78.96V68.46L60.93 49.31" stroke="#424647" stroke-width="0.7693" stroke-miterlimit="10" stroke-linecap="round" stroke-linejoin="round"/>
</svg>
