<svg width="238" height="39" viewBox="0 0 238 39" fill="none" xmlns="http://www.w3.org/2000/svg">
<path d="M9.12 36V13.28H0.16V8H24.56V13.28H15.6V36H9.12ZM33.0991 36.32C30.6457 36.32 28.4857 35.84 26.6191 34.88C24.7791 33.92 23.3524 32.6133 22.3391 30.96C21.3257 29.28 20.8191 27.3733 20.8191 25.24C20.8191 23.08 21.3124 21.1733 22.2991 19.52C23.3124 17.84 24.6857 16.5333 26.4191 15.6C28.1524 14.64 30.1124 14.16 32.2991 14.16C34.4057 14.16 36.2991 14.6133 37.9791 15.52C39.6857 16.4 41.0324 17.68 42.0191 19.36C43.0057 21.0133 43.4991 23 43.4991 25.32C43.4991 25.56 43.4857 25.84 43.4591 26.16C43.4324 26.4533 43.4057 26.7333 43.3791 27H25.8991V23.36H40.0991L37.6991 24.44C37.6991 23.32 37.4724 22.3467 37.0191 21.52C36.5657 20.6933 35.9391 20.0533 35.1391 19.6C34.3391 19.12 33.4057 18.88 32.3391 18.88C31.2724 18.88 30.3257 19.12 29.4991 19.6C28.6991 20.0533 28.0724 20.7067 27.6191 21.56C27.1657 22.3867 26.9391 23.3733 26.9391 24.52V25.48C26.9391 26.6533 27.1924 27.6933 27.6991 28.6C28.2324 29.48 28.9657 30.16 29.8991 30.64C30.8591 31.0933 31.9791 31.32 33.2591 31.32C34.4057 31.32 35.4057 31.1467 36.2591 30.8C37.1391 30.4533 37.9391 29.9333 38.6591 29.24L41.9791 32.84C40.9924 33.96 39.7524 34.8267 38.2591 35.44C36.7657 36.0267 35.0457 36.32 33.0991 36.32ZM57.2675 36V31.8L56.8675 30.88V23.36C56.8675 22.0267 56.4542 20.9867 55.6275 20.24C54.8275 19.4933 53.5875 19.12 51.9075 19.12C50.7608 19.12 49.6275 19.3067 48.5075 19.68C47.4142 20.0267 46.4808 20.5067 45.7075 21.12L43.4675 16.76C44.6408 15.9333 46.0542 15.2933 47.7075 14.84C49.3608 14.3867 51.0408 14.16 52.7475 14.16C56.0275 14.16 58.5742 14.9333 60.3875 16.48C62.2008 18.0267 63.1075 20.44 63.1075 23.72V36H57.2675ZM50.7075 36.32C49.0275 36.32 47.5875 36.04 46.3875 35.48C45.1875 34.8933 44.2675 34.1067 43.6275 33.12C42.9875 32.1333 42.6675 31.0267 42.6675 29.8C42.6675 28.52 42.9742 27.4 43.5875 26.44C44.2275 25.48 45.2275 24.7333 46.5875 24.2C47.9475 23.64 49.7208 23.36 51.9075 23.36H57.6275V27H52.5875C51.1208 27 50.1075 27.24 49.5475 27.72C49.0142 28.2 48.7475 28.8 48.7475 29.52C48.7475 30.32 49.0542 30.96 49.6675 31.44C50.3075 31.8933 51.1742 32.12 52.2675 32.12C53.3075 32.12 54.2408 31.88 55.0675 31.4C55.8942 30.8933 56.4942 30.16 56.8675 29.2L57.8275 32.08C57.3742 33.4667 56.5475 34.52 55.3475 35.24C54.1475 35.96 52.6008 36.32 50.7075 36.32ZM93.315 14.16C95.0217 14.16 96.5283 14.5067 97.835 15.2C99.1683 15.8667 100.208 16.9067 100.955 18.32C101.728 19.7067 102.115 21.4933 102.115 23.68V36H95.875V24.64C95.875 22.9067 95.515 21.6267 94.795 20.8C94.075 19.9733 93.0617 19.56 91.755 19.56C90.8483 19.56 90.035 19.7733 89.315 20.2C88.595 20.6 88.035 21.2133 87.635 22.04C87.235 22.8667 87.035 23.92 87.035 25.2V36H80.795V24.64C80.795 22.9067 80.435 21.6267 79.715 20.8C79.0217 19.9733 78.0217 19.56 76.715 19.56C75.8083 19.56 74.995 19.7733 74.275 20.2C73.555 20.6 72.995 21.2133 72.595 22.04C72.195 22.8667 71.995 23.92 71.995 25.2V36H65.755V14.48H71.715V20.36L70.595 18.64C71.3417 17.1733 72.395 16.0667 73.755 15.32C75.1417 14.5467 76.715 14.16 78.475 14.16C80.4483 14.16 82.1683 14.6667 83.635 15.68C85.1283 16.6667 86.115 18.1867 86.595 20.24L84.395 19.64C85.115 17.96 86.2617 16.6267 87.835 15.64C89.435 14.6533 91.2617 14.16 93.315 14.16Z" fill="#00C673"/>
<path d="M106.388 36V8H118.468C121.588 8 124.001 8.62666 125.708 9.88C127.441 11.1333 128.308 12.9067 128.308 15.2C128.308 16.72 127.948 18 127.228 19.04C126.535 20.08 125.575 20.8667 124.348 21.4C123.148 21.9333 121.828 22.2 120.388 22.2L121.068 21.24C122.855 21.24 124.388 21.52 125.668 22.08C126.975 22.6133 127.988 23.4267 128.708 24.52C129.428 25.5867 129.788 26.92 129.788 28.52C129.788 30.8933 128.908 32.7333 127.148 34.04C125.415 35.3467 122.788 36 119.268 36H106.388ZM109.348 33.56H119.228C121.681 33.56 123.561 33.1467 124.868 32.32C126.175 31.4667 126.828 30.12 126.828 28.28C126.828 26.4667 126.175 25.1467 124.868 24.32C123.561 23.4667 121.681 23.04 119.228 23.04H109.028V20.6H118.268C120.508 20.6 122.241 20.1733 123.468 19.32C124.721 18.4667 125.348 17.2 125.348 15.52C125.348 13.8133 124.721 12.5467 123.468 11.72C122.241 10.8667 120.508 10.44 118.268 10.44H109.348V33.56ZM134.344 36V15H137.064V20.72L136.784 19.72C137.371 18.12 138.358 16.9067 139.744 16.08C141.131 15.2267 142.851 14.8 144.904 14.8V17.56C144.798 17.56 144.691 17.56 144.584 17.56C144.478 17.5333 144.371 17.52 144.264 17.52C142.051 17.52 140.318 18.2 139.064 19.56C137.811 20.8933 137.184 22.8 137.184 25.28V36H134.344ZM160.084 36V31.36L159.964 30.6V22.84C159.964 21.0533 159.457 19.68 158.444 18.72C157.457 17.76 155.977 17.28 154.004 17.28C152.644 17.28 151.351 17.5067 150.124 17.96C148.897 18.4133 147.857 19.0133 147.004 19.76L145.724 17.64C146.791 16.7333 148.071 16.04 149.564 15.56C151.057 15.0533 152.631 14.8 154.284 14.8C157.004 14.8 159.097 15.48 160.564 16.84C162.057 18.1733 162.804 20.2133 162.804 22.96V36H160.084ZM152.844 36.2C151.271 36.2 149.897 35.9467 148.724 35.44C147.577 34.9067 146.697 34.1867 146.084 33.28C145.471 32.3467 145.164 31.28 145.164 30.08C145.164 28.9867 145.417 28 145.924 27.12C146.457 26.2133 147.311 25.4933 148.484 24.96C149.684 24.4 151.284 24.12 153.284 24.12H160.524V26.24H153.364C151.337 26.24 149.924 26.6 149.124 27.32C148.351 28.04 147.964 28.9333 147.964 30C147.964 31.2 148.431 32.16 149.364 32.88C150.297 33.6 151.604 33.96 153.284 33.96C154.884 33.96 156.257 33.6 157.404 32.88C158.577 32.1333 159.431 31.0667 159.964 29.68L160.604 31.64C160.071 33.0267 159.137 34.1333 157.804 34.96C156.497 35.7867 154.844 36.2 152.844 36.2ZM168.918 36V15H171.758V36H168.918ZM170.358 10.36C169.771 10.36 169.278 10.16 168.878 9.76C168.478 9.36 168.278 8.88 168.278 8.32C168.278 7.76 168.478 7.29333 168.878 6.92C169.278 6.52 169.771 6.32 170.358 6.32C170.944 6.32 171.438 6.50666 171.838 6.88C172.238 7.25333 172.438 7.72 172.438 8.28C172.438 8.86667 172.238 9.36 171.838 9.76C171.464 10.16 170.971 10.36 170.358 10.36ZM188.78 14.8C190.487 14.8 191.98 15.1333 193.26 15.8C194.567 16.44 195.58 17.4267 196.3 18.76C197.047 20.0933 197.42 21.7733 197.42 23.8V36H194.58V24.08C194.58 21.8667 194.02 20.2 192.9 19.08C191.807 17.9333 190.26 17.36 188.26 17.36C186.767 17.36 185.46 17.6667 184.34 18.28C183.247 18.8667 182.393 19.7333 181.78 20.88C181.193 22 180.9 23.36 180.9 24.96V36H178.06V15H180.78V20.76L180.34 19.68C181.007 18.16 182.073 16.9733 183.54 16.12C185.007 15.24 186.753 14.8 188.78 14.8ZM209.131 36.2C207.398 36.2 205.758 35.96 204.211 35.48C202.665 34.9733 201.451 34.3467 200.571 33.6L201.851 31.36C202.705 32 203.798 32.56 205.131 33.04C206.465 33.4933 207.865 33.72 209.331 33.72C211.331 33.72 212.771 33.4133 213.651 32.8C214.531 32.16 214.971 31.32 214.971 30.28C214.971 29.5067 214.718 28.9067 214.211 28.48C213.731 28.0267 213.091 27.6933 212.291 27.48C211.491 27.24 210.598 27.04 209.611 26.88C208.625 26.72 207.638 26.5333 206.651 26.32C205.691 26.1067 204.811 25.8 204.011 25.4C203.211 24.9733 202.558 24.4 202.051 23.68C201.571 22.96 201.331 22 201.331 20.8C201.331 19.6533 201.651 18.6267 202.291 17.72C202.931 16.8133 203.865 16.1067 205.091 15.6C206.345 15.0667 207.865 14.8 209.651 14.8C211.011 14.8 212.371 14.9867 213.731 15.36C215.091 15.7067 216.211 16.1733 217.091 16.76L215.851 19.04C214.918 18.4 213.918 17.9467 212.851 17.68C211.785 17.3867 210.718 17.24 209.651 17.24C207.758 17.24 206.358 17.5733 205.451 18.24C204.571 18.88 204.131 19.7067 204.131 20.72C204.131 21.52 204.371 22.1467 204.851 22.6C205.358 23.0533 206.011 23.4133 206.811 23.68C207.638 23.92 208.531 24.12 209.491 24.28C210.478 24.44 211.451 24.64 212.411 24.88C213.398 25.0933 214.291 25.4 215.091 25.8C215.918 26.1733 216.571 26.72 217.051 27.44C217.558 28.1333 217.811 29.0533 217.811 30.2C217.811 31.4267 217.465 32.4933 216.771 33.4C216.105 34.28 215.118 34.9733 213.811 35.48C212.531 35.96 210.971 36.2 209.131 36.2Z" fill="#464646"/>
<path d="M225.088 35.24C224.384 35.24 223.776 34.984 223.264 34.472C222.784 33.96 222.544 33.336 222.544 32.6C222.544 31.832 222.784 31.208 223.264 30.728C223.776 30.248 224.384 30.008 225.088 30.008C225.792 30.008 226.384 30.248 226.864 30.728C227.376 31.208 227.632 31.832 227.632 32.6C227.632 33.336 227.376 33.96 226.864 34.472C226.384 34.984 225.792 35.24 225.088 35.24Z" fill="#00C673"/>
</svg>
